<svg id="visual" viewBox="0 0 2560 1440" width="2560" height="1440" xmlns="http://www.w3.org/2000/svg" xmlns:xlink="http://www.w3.org/1999/xlink" version="1.1"><rect x="0" y="0" width="2560" height="1440" fill="#fafafa"></rect><defs><linearGradient id="grad1_0" x1="43.8%" y1="0%" x2="100%" y2="100%"><stop offset="14.444444444444446%" stop-color="#fafafa" stop-opacity="1"></stop><stop offset="85.55555555555554%" stop-color="#fafafa" stop-opacity="1"></stop></linearGradient></defs><defs><linearGradient id="grad2_0" x1="0%" y1="0%" x2="56.3%" y2="100%"><stop offset="14.444444444444446%" stop-color="#fafafa" stop-opacity="1"></stop><stop offset="85.55555555555554%" stop-color="#fafafa" stop-opacity="1"></stop></linearGradient></defs><g transform="translate(2560, 0)"><path d="M0 576C-113.1 568 -226.1 560.1 -288 498.8C-349.9 437.6 -360.6 323 -400.1 231C-439.6 139 -507.8 69.5 -576 0L0 0Z" fill="#65a07a"></path></g><g transform="translate(0, 1440)"><path d="M0 -576C95.9 -553.5 191.8 -531 280.5 -485.8C369.2 -440.7 450.8 -372.8 498.8 -288C546.9 -203.2 561.4 -101.6 576 0L0 0Z" fill="#65a07a"></path></g></svg>