<svg id="visual" viewBox="0 0 2560 1440" width="2560" height="1440" xmlns="http://www.w3.org/2000/svg" xmlns:xlink="http://www.w3.org/1999/xlink" version="1.1"><rect x="0" y="0" width="2560" height="1440" fill="#fafafa"></rect><defs><linearGradient id="grad1_0" x1="43.8%" y1="0%" x2="100%" y2="100%"><stop offset="14.444444444444446%" stop-color="#fafafa" stop-opacity="1"></stop><stop offset="85.55555555555554%" stop-color="#fafafa" stop-opacity="1"></stop></linearGradient></defs><defs><linearGradient id="grad2_0" x1="0%" y1="0%" x2="56.3%" y2="100%"><stop offset="14.444444444444446%" stop-color="#fafafa" stop-opacity="1"></stop><stop offset="85.55555555555554%" stop-color="#fafafa" stop-opacity="1"></stop></linearGradient></defs><g transform="translate(2560, 0)"><path d="M0 432C-80.1 423.3 -160.2 414.7 -216 374.1C-271.8 333.6 -303.2 261.2 -335.2 193.5C-367.1 125.8 -399.5 62.9 -432 0L0 0Z" fill="#65a07a"></path></g><g transform="translate(0, 1440)"><path d="M0 -432C57.1 -389.4 114.1 -346.8 182.5 -316.1C250.9 -285.4 330.6 -266.7 374.1 -216C417.6 -165.3 424.8 -82.7 432 0L0 0Z" fill="#65a07a"></path></g></svg>