<svg id="visual" viewBox="0 0 2560 1440" width="2560" height="1440" xmlns="http://www.w3.org/2000/svg" xmlns:xlink="http://www.w3.org/1999/xlink" version="1.1"><rect x="0" y="0" width="2560" height="1440" fill="#ffffff"></rect><path d="M0 1175L53.3 1177.8C106.7 1180.7 213.3 1186.3 320 1162C426.7 1137.7 533.3 1083.3 640 1071.3C746.7 1059.3 853.3 1089.7 960 1117.7C1066.7 1145.7 1173.3 1171.3 1280 1158.7C1386.7 1146 1493.3 1095 1600 1077C1706.7 1059 1813.3 1074 1920 1113.3C2026.7 1152.7 2133.3 1216.3 2240 1229.7C2346.7 1243 2453.3 1206 2506.7 1187.5L2560 1169L2560 1441L2506.7 1441C2453.3 1441 2346.7 1441 2240 1441C2133.3 1441 2026.7 1441 1920 1441C1813.3 1441 1706.7 1441 1600 1441C1493.3 1441 1386.7 1441 1280 1441C1173.3 1441 1066.7 1441 960 1441C853.3 1441 746.7 1441 640 1441C533.3 1441 426.7 1441 320 1441C213.3 1441 106.7 1441 53.3 1441L0 1441Z" fill="#558064" stroke-linecap="round" stroke-linejoin="miter"></path></svg>